<svg id="visual" viewBox="0 0 540 540" width="540" height="540" xmlns="http://www.w3.org/2000/svg" xmlns:xlink="http://www.w3.org/1999/xlink" version="1.1"><g transform="translate(244.3164154030703 297.88212196217694)"><path d="M141.3 -169.9C195.1 -123.2 259.1 -90.1 275.6 -41.8C292.1 6.4 261.2 69.7 215.8 102.2C170.3 134.7 110.3 136.4 55.3 159.8C0.3 183.2 -49.6 228.3 -105.7 232.9C-161.9 237.5 -224.3 201.5 -228.5 152.2C-232.7 103 -178.7 40.5 -161.4 -23.5C-144.2 -87.4 -163.7 -152.9 -142.9 -205.5C-122.1 -258 -61.1 -297.8 -8.7 -287.4C43.7 -277.1 87.4 -216.7 141.3 -169.9" fill="#222222"></path></g></svg>