<?xml version="1.0" standalone="no"?>
<!DOCTYPE svg PUBLIC "-//W3C//DTD SVG 20010904//EN"
 "http://www.w3.org/TR/2001/REC-SVG-20010904/DTD/svg10.dtd">
<svg version="1.0" xmlns="http://www.w3.org/2000/svg"
 width="860.000000pt" height="389.000000pt" viewBox="0 0 860.000000 389.000000"
 preserveAspectRatio="xMidYMid meet">
<metadata>
Created by potrace 1.16, written by Peter Selinger 2001-2019
</metadata>
<g transform="translate(0.000000,389.000000) scale(0.100000,-0.100000)"
fill="#000000" stroke="none">
<path d="M2235 3483 c-269 -14 -566 -111 -792 -258 -180 -118 -287 -221 -523
-510 -257 -316 -373 -432 -532 -538 l-78 -52 1 -60 c0 -33 6 -132 12 -220 l12
-160 60 -6 c157 -15 261 -129 454 -498 130 -247 195 -336 364 -498 217 -207
506 -355 804 -413 150 -29 467 -29 619 1 434 83 796 330 1056 718 92 137 199
343 237 458 11 35 41 134 66 220 56 191 81 248 130 296 75 72 217 87 310 33
80 -47 112 -113 200 -416 68 -234 140 -390 278 -595 244 -366 568 -595 994
-703 104 -26 118 -27 363 -27 209 0 270 3 340 18 409 87 786 341 1015 682 29
44 92 154 139 244 107 205 177 310 255 384 73 70 128 96 199 97 50 0 52 1 52
28 0 15 7 114 15 221 9 107 14 195 13 196 -199 122 -361 277 -599 570 -85 104
-197 234 -249 288 -489 511 -1250 646 -1889 334 -244 -118 -465 -315 -631
-560 -103 -154 -192 -252 -260 -288 -44 -24 -51 -24 -343 -27 -379 -4 -378 -4
-492 111 -48 49 -119 138 -175 222 -292 432 -747 685 -1275 708 -49 2 -117 2
-150 0z m216 -223 c630 -63 1124 -517 1245 -1145 26 -134 24 -368 -5 -505 -58
-276 -172 -495 -358 -691 -239 -251 -543 -397 -892 -429 -284 -26 -602 48
-839 197 -126 79 -180 123 -285 233 -186 193 -300 411 -359 683 -31 145 -31
399 0 544 59 273 173 490 360 684 196 205 413 331 679 395 166 40 294 50 454
34z m4090 -20 c513 -98 929 -476 1074 -975 44 -154 58 -271 52 -440 -8 -210
-47 -372 -132 -550 -192 -399 -555 -679 -992 -765 -140 -28 -365 -31 -503 -6
-501 89 -922 453 -1084 936 -50 150 -61 231 -61 435 0 146 4 210 18 275 59
272 189 513 382 705 332 331 789 472 1246 385z"/>
</g>
</svg>
