
<svg id="visual" viewBox="0 0 900 675" width="900" height="675" xmlns="http://www.w3.org/2000/svg" xmlns:xlink="http://www.w3.org/1999/xlink" version="1.1"><rect x="0" y="0" width="900" height="675" fill="transparent"></rect><defs><linearGradient id="grad1_0" x1="25%" y1="0%" x2="100%" y2="100%"><stop offset="23.333333333333336%" stop-color="#001220" stop-opacity="1"></stop><stop offset="76.66666666666666%" stop-color="#001220" stop-opacity="1"></stop></linearGradient></defs><defs><linearGradient id="grad2_0" x1="0%" y1="0%" x2="75%" y2="100%"><stop offset="23.333333333333336%" stop-color="#001220" stop-opacity="1"></stop><stop offset="76.66666666666666%" stop-color="#001220" stop-opacity="1"></stop></linearGradient></defs><g transform="translate(900, 0)"><path d="M0 337.5C-38.3 317.4 -76.6 297.3 -117.1 282.7C-157.6 268.1 -200.1 259.1 -234.8 234.8C-269.4 210.4 -296 170.8 -311.8 129.2C-327.6 87.5 -332.6 43.7 -337.5 0L0 0Z" fill="#44D375"></path></g><g transform="translate(0, 675)"><path d="M0 -337.5C49.2 -337.6 98.4 -337.7 129.2 -311.8C159.9 -285.9 172.3 -234.1 201.5 -201.5C230.7 -168.9 276.7 -155.5 302.1 -125.1C327.6 -94.8 332.5 -47.4 337.5 0L0 0Z" fill="#44D375"></path></g></svg>