<svg id="visual" viewBox="0 0 900 675" width="900" height="675" xmlns="http://www.w3.org/2000/svg" xmlns:xlink="http://www.w3.org/1999/xlink" version="1.1"><rect x="0" y="0" width="900" height="675" fill="transparent"></rect><defs><linearGradient id="grad1_0" x1="25%" y1="0%" x2="100%" y2="100%"><stop offset="23.333333333333336%" stop-color="#001220" stop-opacity="1"></stop><stop offset="76.66666666666666%" stop-color="#001220" stop-opacity="1"></stop></linearGradient></defs><defs><linearGradient id="grad2_0" x1="0%" y1="0%" x2="75%" y2="100%"><stop offset="23.333333333333336%" stop-color="#001220" stop-opacity="1"></stop><stop offset="76.66666666666666%" stop-color="#001220" stop-opacity="1"></stop></linearGradient></defs><g transform="translate(900, 0)"><path d="M0 309.4C-32.7 302.4 -65.4 295.5 -90.5 278.7C-115.7 261.8 -133.2 235.1 -158.7 218.4C-184.2 201.7 -217.6 195 -242.7 176.3C-267.8 157.6 -284.5 127 -294.2 95.6C-304 64.2 -306.7 32.1 -309.4 0L0 0Z" fill="#004E98"></path></g><g transform="translate(0, 675)"><path d="M0 -309.4C32.3 -307.5 64.6 -305.7 95.6 -294.2C126.6 -282.8 156.4 -261.8 168.1 -231.4C179.8 -200.9 173.4 -161 189.3 -137.5C205.2 -114.1 243.5 -107 267.2 -86.8C291 -66.6 300.2 -33.3 309.4 0L0 0Z" fill="#004E98"></path></g></svg>