<svg id="visual" viewBox="0 0 900 675" width="900" height="675" xmlns="http://www.w3.org/2000/svg" xmlns:xlink="http://www.w3.org/1999/xlink" version="1.1"><rect x="0" y="0" width="900" height="675" fill="transparent"></rect><defs><linearGradient id="grad1_0" x1="25%" y1="100%" x2="100%" y2="0%"><stop offset="23.333333333333336%" stop-color="#001220" stop-opacity="1"></stop><stop offset="76.66666666666666%" stop-color="#001220" stop-opacity="1"></stop></linearGradient></defs><defs><linearGradient id="grad2_0" x1="0%" y1="100%" x2="75%" y2="0%"><stop offset="23.333333333333336%" stop-color="#001220" stop-opacity="1"></stop><stop offset="76.66666666666666%" stop-color="#001220" stop-opacity="1"></stop></linearGradient></defs><g transform="translate(900, 675)"><path d="M-309.4 0C-308.5 -45.8 -307.6 -91.7 -280.9 -116.3C-254.2 -141 -201.7 -144.5 -173.9 -173.9C-146.2 -203.4 -143.3 -258.9 -118.4 -285.8C-93.5 -312.7 -46.8 -311.1 0 -309.4L0 0Z" fill="#44D375"></path></g><g transform="translate(0, 0)"><path d="M309.4 0C313.6 49.3 317.8 98.6 285.8 118.4C253.8 138.1 185.7 128.3 156.3 156.3C126.9 184.2 136.3 250 116.7 281.8C97.1 313.6 48.6 311.5 0 309.4L0 0Z" fill="#44D375"></path></g></svg>