<svg id="visual" viewBox="0 0 900 675" width="900" height="675" xmlns="http://www.w3.org/2000/svg" xmlns:xlink="http://www.w3.org/1999/xlink" version="1.1"><rect x="0" y="0" width="900" height="675" fill="transparent"></rect><defs><linearGradient id="grad1_0" x1="25%" y1="0%" x2="100%" y2="100%"><stop offset="23.333333333333336%" stop-color="#ffffff" stop-opacity="1"></stop><stop offset="76.66666666666666%" stop-color="#ffffff" stop-opacity="1"></stop></linearGradient></defs><defs><linearGradient id="grad2_0" x1="0%" y1="0%" x2="75%" y2="100%"><stop offset="23.333333333333336%" stop-color="#ffffff" stop-opacity="1"></stop><stop offset="76.66666666666666%" stop-color="#ffffff" stop-opacity="1"></stop></linearGradient></defs><g transform="translate(900, 0)"><path d="M0 365.6C-78.1 364.3 -156.3 362.9 -182.8 316.6C-209.3 270.4 -184.2 179.3 -206.1 119C-228 58.7 -296.8 29.4 -365.6 0L0 0Z" fill="#44D375"></path></g><g transform="translate(0, 675)"><path d="M0 -365.6C53.4 -338.4 106.7 -311.1 164 -284.1C221.3 -257 282.4 -230.1 316.6 -182.8C350.9 -135.5 358.3 -67.8 365.6 0L0 0Z" fill="#44D375"></path></g></svg>