<svg id="visual" viewBox="0 0 900 675" width="900" height="675" xmlns="http://www.w3.org/2000/svg" xmlns:xlink="http://www.w3.org/1999/xlink" version="1.1"><rect x="0" y="0" width="900" height="675" fill="transparent"></rect><defs><linearGradient id="grad1_0" x1="25%" y1="100%" x2="100%" y2="0%"><stop offset="23.333333333333336%" stop-color="#001220" stop-opacity="1"></stop><stop offset="76.66666666666666%" stop-color="#001220" stop-opacity="1"></stop></linearGradient></defs><defs><linearGradient id="grad2_0" x1="0%" y1="100%" x2="75%" y2="0%"><stop offset="23.333333333333336%" stop-color="#001220" stop-opacity="1"></stop><stop offset="76.66666666666666%" stop-color="#001220" stop-opacity="1"></stop></linearGradient></defs><g transform="translate(900, 675)"><path d="M-337.5 0C-336.3 -47.3 -335.1 -94.7 -311.8 -129.2C-288.5 -163.6 -243.2 -185.2 -207.9 -207.9C-172.6 -230.6 -147.4 -254.4 -114.4 -276.2C-81.5 -298 -40.7 -317.8 0 -337.5L0 0Z" fill="#44D375"></path></g><g transform="translate(0, 0)"><path d="M337.5 0C322.1 39.6 306.7 79.3 292.9 121.3C279 163.3 266.6 207.7 238.6 238.6C210.7 269.6 167.1 287 124.8 301.2C82.4 315.4 41.2 326.5 0 337.5L0 0Z" fill="#44D375"></path></g></svg>