<svg id="visual" viewBox="0 0 900 675" width="900" height="675" xmlns="http://www.w3.org/2000/svg" xmlns:xlink="http://www.w3.org/1999/xlink" version="1.1"><rect x="0" y="0" width="900" height="675" fill="transparent"></rect><defs><linearGradient id="grad1_0" x1="25%" y1="100%" x2="100%" y2="0%"><stop offset="23.333333333333336%" stop-color="#001220" stop-opacity="1"></stop><stop offset="76.66666666666666%" stop-color="#001220" stop-opacity="1"></stop></linearGradient></defs><defs><linearGradient id="grad2_0" x1="0%" y1="100%" x2="75%" y2="0%"><stop offset="23.333333333333336%" stop-color="#001220" stop-opacity="1"></stop><stop offset="76.66666666666666%" stop-color="#001220" stop-opacity="1"></stop></linearGradient></defs><g transform="translate(900, 675)"><path d="M-309.4 0C-302.9 -43.8 -296.5 -87.6 -269.8 -111.7C-243.1 -135.9 -196.1 -140.5 -171.1 -171.1C-146.2 -201.7 -143.2 -258.4 -118.4 -285.8C-93.5 -313.2 -46.8 -311.3 0 -309.4L0 0Z" fill="#004E98"></path></g><g transform="translate(0, 0)"><path d="M309.4 0C272.6 32.6 235.8 65.2 208.8 86.5C181.8 107.8 164.6 117.9 154.9 154.9C145.1 191.8 142.9 255.6 118.4 285.8C93.8 316.1 46.9 312.7 0 309.4L0 0Z" fill="#004E98"></path></g></svg>