<svg id="visual" viewBox="0 0 900 675" width="900" height="675" xmlns="http://www.w3.org/2000/svg" xmlns:xlink="http://www.w3.org/1999/xlink" version="1.1"><rect x="0" y="0" width="900" height="675" fill="transparent"></rect><defs><linearGradient id="grad1_0" x1="25%" y1="0%" x2="100%" y2="100%"><stop offset="23.333333333333336%" stop-color="transparent" stop-opacity="1"></stop><stop offset="76.66666666666666%" stop-color="#001220" stop-opacity="1"></stop></linearGradient></defs><defs><linearGradient id="grad2_0" x1="0%" y1="0%" x2="75%" y2="100%"><stop offset="23.333333333333336%" stop-color="#001220" stop-opacity="1"></stop><stop offset="76.66666666666666%" stop-color="#001220" stop-opacity="1"></stop></linearGradient></defs><g transform="translate(900, 0)"><path d="M0 281.3C-35.2 276.6 -70.4 272 -107.6 259.8C-144.9 247.6 -184.1 227.8 -195.2 195.2C-206.2 162.5 -189 116.9 -198.6 82.3C-208.3 47.6 -244.8 23.8 -281.2 0L0 0Z" fill="#004E98"></path></g><g transform="translate(0, 675)"><path d="M0 -281.2C30.8 -253.5 61.6 -225.7 84.6 -204.2C107.6 -182.6 122.8 -167.3 154.9 -154.9C187 -142.4 236 -133 259.8 -107.6C283.7 -82.3 282.5 -41.2 281.3 0L0 0Z" fill="#004E98"></path></g></svg>